# xmcd
#
# Track frame offsets: 
#        150
#        12180
#        28828
#        40474
#        57702
#        75858
#        91630
#        107732
#        127316
#        156272
#        173200
#
# Disc length: 2454 seconds
#
# Revision: 4
# Processed by: cddbd v1.5.1PL0 Copyright (c) Steve Scherf et al.
# Submitted via: ExactAudioCopy v0.95a5
#
DISCID=8a09940b
DTITLE=Joy Division - At Last
DYEAR=1984
DGENRE=Classical
TTITLE0=Wilderness (Live In London 22.09.79)
TTITLE1=Shadowplay (Live In London 22.09.79)
TTITLE2=Leaders Of Men (Live In London 22.09.79)
TTITLE3=Insight (Live In London 22.09.79)
TTITLE4=Colony (Live In London 22.09.79)
TTITLE5=Transmission (Live In London 22.09.79)
TTITLE6=Disorder (Live In London 22.09.79)
TTITLE7=She's Lost Control (Live In London 22.09.79)
TTITLE8=Atrocity Exhibition (Live In London 22.09.79)
TTITLE9=Glass (Live In London 22.09.79)
TTITLE10=Exercise One (Live In London 22.09.79)
EXTD=
EXTT0=
EXTT1=
EXTT2=
EXTT3=
EXTT4=
EXTT5=
EXTT6=
EXTT7=
EXTT8=
EXTT9=
EXTT10=
PLAYORDER=
